<svg width="14" height="18" viewBox="0 0 14 18" fill="none" xmlns="http://www.w3.org/2000/svg">
<path d="M12.5835 0.666992V2.33366H10.9168V4.83366C12.2977 4.83366 13.4168 5.95283 13.4168 7.33366V16.5003C13.4168 16.9603 13.0435 17.3337 12.5835 17.3337H0.916829C0.456829 17.3337 0.0834961 16.9603 0.0834961 16.5003V7.33366C0.0834961 5.95283 1.20266 4.83366 2.5835 4.83366V2.33366H0.916829V0.666992H12.5835ZM10.9168 6.50033H2.5835C2.1235 6.50033 1.75016 6.87366 1.75016 7.33366V15.667H11.7502V7.33366C11.7502 6.87366 11.3768 6.50033 10.9168 6.50033ZM7.5835 8.16699V9.83366H9.25016V11.5003H7.58266L7.5835 13.167H5.91683L5.916 11.5003H4.25016V9.83366H5.91683V8.16699H7.5835ZM9.25016 2.33366H4.25016V4.83366H9.25016V2.33366Z" fill="#2F2B43" fill-opacity="0.6"/>
</svg>
