<svg width="213" height="38" viewBox="0 0 213 38" fill="none" xmlns="http://www.w3.org/2000/svg">
<path d="M18.9423 4.2865C10.8485 4.2865 4.26286 10.8869 4.26286 18.9999C4.26286 27.113 10.8485 33.7134 18.9423 33.7134C27.0353 33.7134 33.6209 27.1125 33.6209 18.9999C33.6209 10.8873 27.0353 4.2865 18.9423 4.2865ZM18.9423 37.2606C8.897 37.2606 0.724609 29.0684 0.724609 18.9995C0.724609 8.93067 8.897 0.739258 18.9423 0.739258C28.9872 0.739258 37.1592 8.93067 37.1592 18.9995C37.1592 29.0684 28.9872 37.2606 18.9423 37.2606Z" fill="#50C878"/>
<path d="M19.2862 22.9208L10.1055 14.4783L12.4975 11.8646L18.5992 17.4748L24.6646 8.13477L27.6309 10.0701L19.2862 22.9208Z" fill="#50C878"/>
<path d="M53.5361 19.0006C53.5361 21.3336 54.6997 22.6578 57.0586 22.6578C57.7191 22.6578 58.3166 22.5632 58.7884 22.3425C59.6691 21.9957 60.2666 21.3336 60.5811 20.4193C60.7069 19.978 60.7698 19.505 60.7698 19.0006C60.7698 18.4962 60.7069 18.0232 60.5811 17.5819C60.2352 16.6045 59.7005 16.0685 58.7884 15.6271C58.3166 15.438 57.7191 15.3434 57.0586 15.3434C54.6997 15.3434 53.5361 16.6676 53.5361 19.0006ZM53.5361 25.3061V33.188H48.8184V19.0006C48.8184 13.9562 52.3724 10.9611 57.1215 10.9611C61.965 10.9611 65.4875 14.1453 65.4875 18.9691C65.4875 23.446 62.1223 27.0401 57.6562 27.0401C56.7441 27.0401 55.9578 26.8825 55.2973 26.5672C54.6054 26.2835 54.0078 25.8421 53.5361 25.3061ZM75.1116 22.6578C77.4076 22.6578 78.7285 21.3021 78.7285 19.0006C78.7285 16.6991 77.4076 15.3434 75.1116 15.3434C72.8157 15.3434 71.4947 16.6991 71.4947 19.0006C71.4947 21.3021 72.8157 22.6578 75.1116 22.6578ZM75.1116 27.0401C70.2681 27.0401 66.777 23.8243 66.777 19.0006C66.777 14.0192 70.3939 10.9611 75.1116 10.9611C79.9866 10.9611 83.4462 14.1769 83.4462 19.0006C83.4462 23.9504 79.7979 27.0401 75.1116 27.0401ZM85.522 4.81317H90.2397V26.8825H85.522V4.81317ZM93.3848 11.1187H98.1025V26.8825H93.3848V11.1187ZM95.7437 9.63689C94.1397 9.63689 93.0074 8.5019 93.0074 6.89399C93.0074 5.25456 94.1397 4.18262 95.7437 4.18262C97.3791 4.18262 98.4485 5.25456 98.4485 6.89399C98.4485 8.56496 97.4106 9.63689 95.7437 9.63689ZM113.765 21.6804V26.4096C112.161 26.9456 110.494 27.1032 108.827 27.1032C103.952 27.1032 100.493 23.8558 100.493 19.0321C100.493 14.0192 104.078 10.9611 108.827 10.9611C110.494 10.9611 112.161 11.1187 113.765 11.6547V16.3838C112.381 15.6587 110.652 15.4695 109.11 15.4695C108.073 15.4695 106.815 15.6902 106.091 16.5099C105.431 17.172 105.211 18.1178 105.211 19.0006C105.211 19.505 105.273 19.978 105.431 20.3878C105.556 20.8292 105.777 21.2075 106.091 21.5228C106.783 22.3741 108.073 22.5947 109.11 22.5947C110.494 22.5947 112.539 22.3425 113.765 21.6804ZM127.478 19.0006V11.1187H132.196V26.0628C132.196 31.0757 128.61 34.1338 123.861 34.1338C122.194 34.1338 120.527 33.9762 118.923 33.4402V28.585C120.276 29.3101 122.1 29.5623 123.61 29.5623C125.308 29.5623 126.66 29.0579 127.289 27.4185C127.415 26.9771 127.478 26.5042 127.478 26.0312V25.3061C126.409 26.5042 125.025 27.0401 123.452 27.0401C118.986 27.0401 116.156 23.1938 116.156 19.0006V11.1187H120.873V19.0006C120.873 21.1445 121.722 22.6578 124.018 22.6578C126.251 22.6578 127.478 21.176 127.478 19.0006ZM138.926 22.5002H149.746V26.8825H134.523V21.775C134.523 17.6449 138.046 16.6045 141.379 16.0685C142.103 15.9109 142.7 15.7848 143.172 15.6271C143.613 15.501 143.958 15.3749 144.21 15.2488C144.43 15.1227 144.588 14.9966 144.682 14.8705C144.776 14.7759 144.808 14.6498 144.808 14.5552C144.808 14.2715 144.619 14.1138 144.21 14.0192C143.801 13.9562 143.141 13.9246 142.229 13.9246C140.373 13.9246 138.549 14.0192 136.693 14.2399C136.159 14.3345 135.718 14.3976 135.341 14.4921V10.0783C136.379 9.79453 137.48 9.66842 138.549 9.54231C139.115 9.51078 139.681 9.44773 140.216 9.4162C140.75 9.38467 141.254 9.38467 141.663 9.38467C145.217 9.38467 149.305 10.362 149.305 14.5867C149.305 18.6538 146.16 19.4735 142.952 20.0725C141.474 20.3563 140.436 20.6716 139.838 20.9868C139.241 21.3021 138.926 21.7435 138.926 22.2795V22.5002ZM167.421 18.9691V23.2568H164.496V26.8825H159.778V23.2568H151.79V18.9691L158.269 9.54231H163.71L157.231 18.9691H159.778V15.8478H164.496V18.9691H167.421ZM176.007 24.3288C176.007 25.9367 174.907 27.0401 173.303 27.0401C171.699 27.0401 170.566 25.9682 170.566 24.3288C170.566 22.7209 171.699 21.5859 173.303 21.5859C174.969 21.5859 176.007 22.6578 176.007 24.3288ZM190.506 19.0006C190.381 16.6991 189.343 15.3434 186.952 15.3434C186.292 15.3434 185.726 15.438 185.254 15.6271C183.807 16.2892 183.273 17.5188 183.273 19.0321C183.273 19.5366 183.335 20.0095 183.493 20.4193C183.965 22.0588 185.38 22.6578 186.952 22.6578C189.343 22.6578 190.506 21.3652 190.506 19.0006ZM196.482 26.8825H191.764C191.45 26.0943 191.167 25.3061 190.978 24.4864C189.909 26.2519 188.273 27.0401 186.26 27.0401C181.763 27.0401 178.555 23.2568 178.555 18.9375C178.555 13.9562 182.266 10.9611 186.952 10.9611C191.953 10.9611 195.098 14.1769 195.224 19.0006C195.256 19.4105 195.256 19.8834 195.256 20.4509C195.256 22.6578 195.601 24.8647 196.482 26.8825ZM202.615 17.1089C203.087 17.2666 203.622 17.3927 204.188 17.4557C204.754 17.5503 205.288 17.5819 205.792 17.5819C206.421 17.5819 208.025 17.4557 208.025 16.5414C208.025 15.5641 206.641 15.5326 205.949 15.5326C204.565 15.5326 203.37 15.8478 202.615 17.1089ZM211.516 21.9642V26.3781C209.755 26.7879 207.993 27.0717 206.169 27.0717C201.168 27.0717 197.457 24.1396 197.457 19.0637C197.457 14.0508 201.043 10.9611 205.792 10.9611C209.031 10.9611 212.774 12.5059 212.774 16.1946C212.774 19.8518 208.811 21.2075 205.76 21.2075C204.597 21.2075 203.433 20.8923 202.364 20.4509C202.993 22.2164 204.88 22.5002 206.515 22.5002C207.364 22.5002 208.213 22.4686 209.063 22.3425C209.849 22.2795 210.761 22.1849 211.516 21.9642Z" fill="black"/>
</svg>
