<svg width="112" height="24" viewBox="0 0 112 24" fill="none" xmlns="http://www.w3.org/2000/svg">
<path d="M11.9989 4.64276C7.9429 4.64276 4.64271 7.94296 4.64271 11.9995C4.64271 16.056 7.9429 19.3562 11.9989 19.3562C16.0544 19.3562 19.3546 16.0558 19.3546 11.9995C19.3546 7.94317 16.0544 4.64276 11.9989 4.64276ZM11.9989 21.1298C6.96497 21.1298 2.86963 17.0337 2.86963 11.9993C2.86963 6.96485 6.96497 2.86914 11.9989 2.86914C17.0325 2.86914 21.1277 6.96485 21.1277 11.9993C21.1277 17.0337 17.0325 21.1298 11.9989 21.1298Z" fill="#50C878"/>
<path d="M12.1709 13.9614L7.57031 9.74011L8.76898 8.43329L11.8267 11.2384L14.8661 6.56836L16.3526 7.53601L12.1709 13.9614Z" fill="#50C878"/>
<path d="M29.3341 11.9998C29.3341 13.1663 29.9172 13.8284 31.0993 13.8284C31.4303 13.8284 31.7297 13.7811 31.9662 13.6708C32.4075 13.4974 32.7069 13.1663 32.8645 12.7092C32.9276 12.4885 32.9591 12.252 32.9591 11.9998C32.9591 11.7476 32.9276 11.5111 32.8645 11.2904C32.6911 10.8018 32.4232 10.5338 31.9662 10.3131C31.7297 10.2185 31.4303 10.1712 31.0993 10.1712C29.9172 10.1712 29.3341 10.8333 29.3341 11.9998ZM29.3341 15.1526V19.0935H26.97V11.9998C26.97 9.4776 28.7509 7.98004 31.1308 7.98004C33.558 7.98004 35.3232 9.57218 35.3232 11.984C35.3232 14.2225 33.6368 16.0196 31.3988 16.0196C30.9417 16.0196 30.5477 15.9408 30.2167 15.7831C29.87 15.6412 29.5705 15.4206 29.3341 15.1526ZM40.146 13.8284C41.2966 13.8284 41.9585 13.1506 41.9585 11.9998C41.9585 10.8491 41.2966 10.1712 40.146 10.1712C38.9955 10.1712 38.3335 10.8491 38.3335 11.9998C38.3335 13.1506 38.9955 13.8284 40.146 13.8284ZM40.146 16.0196C37.7189 16.0196 35.9694 14.4117 35.9694 11.9998C35.9694 9.50913 37.7819 7.98004 40.146 7.98004C42.5889 7.98004 44.3226 9.58795 44.3226 11.9998C44.3226 14.4747 42.4944 16.0196 40.146 16.0196ZM45.3628 4.9061H47.727V15.9408H45.3628V4.9061ZM49.3031 8.05886H51.6672V15.9408H49.3031V8.05886ZM50.4851 7.31796C49.6813 7.31796 49.1139 6.75046 49.1139 5.94651C49.1139 5.12679 49.6813 4.59082 50.4851 4.59082C51.3047 4.59082 51.8405 5.12679 51.8405 5.94651C51.8405 6.78199 51.3204 7.31796 50.4851 7.31796ZM59.5161 13.3397V15.7043C58.7123 15.9723 57.8769 16.0511 57.0416 16.0511C54.5987 16.0511 52.865 14.4274 52.865 12.0156C52.865 9.50913 54.6617 7.98004 57.0416 7.98004C57.8769 7.98004 58.7123 8.05886 59.5161 8.32684V10.6914C58.8226 10.3288 57.9557 10.2343 57.1835 10.2343C56.6634 10.2343 56.0329 10.3446 55.6704 10.7545C55.3394 11.0855 55.2291 11.5584 55.2291 11.9998C55.2291 12.252 55.2606 12.4885 55.3394 12.6934C55.4025 12.9141 55.5128 13.1033 55.6704 13.2609C56.0172 13.6865 56.6634 13.7969 57.1835 13.7969C57.8769 13.7969 58.9014 13.6708 59.5161 13.3397ZM66.3878 11.9998V8.05886H68.7519V15.5309C68.7519 18.0373 66.9552 19.5664 64.5753 19.5664C63.74 19.5664 62.9046 19.4876 62.1008 19.2196V16.792C62.7786 17.1546 63.6927 17.2807 64.4492 17.2807C65.3003 17.2807 65.978 17.0285 66.2932 16.2087C66.3563 15.9881 66.3878 15.7516 66.3878 15.5151V15.1526C65.8519 15.7516 65.1584 16.0196 64.3704 16.0196C62.1324 16.0196 60.7139 14.0964 60.7139 11.9998V8.05886H63.078V11.9998C63.078 13.0717 63.5036 13.8284 64.6541 13.8284C65.7731 13.8284 66.3878 13.0875 66.3878 11.9998ZM72.1247 13.7496H77.5464V15.9408H69.9182V13.387C69.9182 11.322 71.6834 10.8018 73.3541 10.5338C73.7166 10.455 74.016 10.3919 74.2524 10.3131C74.4731 10.25 74.6465 10.187 74.7725 10.1239C74.8829 10.0609 74.9617 9.99781 75.009 9.93475C75.0562 9.88746 75.072 9.8244 75.072 9.77711C75.072 9.63524 74.9774 9.55642 74.7725 9.50913C74.5676 9.4776 74.2367 9.46184 73.7796 9.46184C72.8497 9.46184 71.9356 9.50913 71.0057 9.61947C70.7378 9.66677 70.5171 9.69829 70.328 9.74559V7.53865C70.8481 7.39678 71.3997 7.33372 71.9356 7.27067C72.2193 7.2549 72.503 7.22338 72.7709 7.20761C73.0388 7.19185 73.291 7.19185 73.4959 7.19185C75.2769 7.19185 77.3258 7.68053 77.3258 9.79288C77.3258 11.8264 75.7497 12.2363 74.1421 12.5358C73.4014 12.6777 72.8812 12.8353 72.5818 12.9929C72.2823 13.1506 72.1247 13.3713 72.1247 13.6392V13.7496ZM86.404 11.984V14.1279H84.9383V15.9408H82.5741V14.1279H78.5709V11.984L81.8176 7.27067H84.5442L81.2975 11.984H82.5741V10.4234H84.9383V11.984H86.404ZM90.7067 14.6639C90.7067 15.4678 90.1551 16.0196 89.3513 16.0196C88.5475 16.0196 87.9801 15.4836 87.9801 14.6639C87.9801 13.8599 88.5475 13.2924 89.3513 13.2924C90.1866 13.2924 90.7067 13.8284 90.7067 14.6639ZM97.9725 11.9998C97.9094 10.8491 97.3893 10.1712 96.1915 10.1712C95.8605 10.1712 95.5768 10.2185 95.3404 10.3131C94.6154 10.6441 94.3475 11.2589 94.3475 12.0156C94.3475 12.2678 94.379 12.5043 94.4578 12.7092C94.6942 13.5289 95.4035 13.8284 96.1915 13.8284C97.3893 13.8284 97.9725 13.1821 97.9725 11.9998ZM100.967 15.9408H98.6029C98.4453 15.5467 98.3035 15.1526 98.2089 14.7427C97.673 15.6255 96.8535 16.0196 95.8448 16.0196C93.591 16.0196 91.9834 14.1279 91.9834 11.9683C91.9834 9.4776 93.8431 7.98004 96.1915 7.98004C98.6975 7.98004 100.274 9.58795 100.337 11.9998C100.352 12.2047 100.352 12.4412 100.352 12.7249C100.352 13.8284 100.526 14.9319 100.967 15.9408ZM104.04 11.054C104.277 11.1328 104.545 11.1959 104.828 11.2274C105.112 11.2747 105.38 11.2904 105.632 11.2904C105.947 11.2904 106.751 11.2274 106.751 10.7702C106.751 10.2816 106.058 10.2658 105.711 10.2658C105.018 10.2658 104.419 10.4234 104.04 11.054ZM108.501 13.4816V15.6885C107.618 15.8935 106.735 16.0353 105.821 16.0353C103.315 16.0353 101.456 14.5693 101.456 12.0313C101.456 9.52489 103.252 7.98004 105.632 7.98004C107.256 7.98004 109.131 8.75247 109.131 10.5968C109.131 12.4254 107.145 13.1033 105.616 13.1033C105.033 13.1033 104.45 12.9456 103.914 12.7249C104.23 13.6077 105.175 13.7496 105.995 13.7496C106.42 13.7496 106.846 13.7338 107.271 13.6708C107.665 13.6392 108.122 13.592 108.501 13.4816Z" fill="#2F2B43"/>
</svg>
