<svg width="18" height="18" viewBox="0 0 18 18" fill="none" xmlns="http://www.w3.org/2000/svg">
    <path d="M8.16699 0.666626C12.307 0.666626 15.667 4.02663 15.667 8.16663C15.667 12.3066 12.307 15.6666 8.16699 15.6666C4.02699 15.6666 0.666992 12.3066 0.666992 8.16663C0.666992 4.02663 4.02699 0.666626 8.16699 0.666626ZM8.16699 14C11.3895 14 14.0003 11.3891 14.0003 8.16663C14.0003 4.94329 11.3895 2.33329 8.16699 2.33329C4.94366 2.33329 2.33366 4.94329 2.33366 8.16663C2.33366 11.3891 4.94366 14 8.16699 14ZM15.2378 14.0591L17.5953 16.4158L16.4162 17.595L14.0595 15.2375L15.2378 14.0591Z" fill="#2F2B43" fill-opacity="0.6"/>
</svg>
