<svg width="16" height="20" viewBox="0 0 16 20" fill="none" xmlns="http://www.w3.org/2000/svg">
<path d="M2.16667 3.83634V11.4905C2.16668 12.0392 2.30215 12.5795 2.56105 13.0632C2.81996 13.547 3.19429 13.9594 3.65083 14.2638L8 17.1638L12.3492 14.2638C12.8056 13.9595 13.1799 13.5473 13.4388 13.0636C13.6977 12.58 13.8332 12.0399 13.8333 11.4913V3.83634L8 2.54134L2.16667 3.83634ZM1.1525 2.35467L8 0.833008L14.8475 2.35467C15.0326 2.39581 15.198 2.49881 15.3167 2.64668C15.4353 2.79454 15.5 2.97844 15.5 3.16801V11.4905C15.4999 12.3136 15.2967 13.124 14.9082 13.8497C14.5198 14.5754 13.9582 15.194 13.2733 15.6505L8 19.1663L2.72667 15.6505C2.04189 15.194 1.48038 14.5756 1.09196 13.85C0.70353 13.1245 0.500197 12.3143 0.5 11.4913V3.16801C0.500033 2.97844 0.564698 2.79454 0.683325 2.64668C0.801951 2.49881 0.967447 2.39581 1.1525 2.35467ZM8 11.2497L5.55083 12.5372L6.01833 9.81051L4.0375 7.87884L6.77583 7.48051L8 4.99967L9.225 7.48051L11.9625 7.87884L9.98167 9.81051L10.4483 12.5372L8 11.2497Z" fill="white"/>
</svg>
